<svg width="192" height="192" viewBox="0 0 192 192" fill="none" xmlns="http://www.w3.org/2000/svg">
  <rect width="192" height="192" rx="24" fill="#4F46E5"/>
  <path d="M48 96C48 69.49 69.49 48 96 48C122.51 48 144 69.49 144 96C144 122.51 122.51 144 96 144C69.49 144 48 122.51 48 96Z" fill="white"/>
  <path d="M96 72C83.85 72 74 81.85 74 94V98C74 110.15 83.85 120 96 120C108.15 120 118 110.15 118 98V94C118 81.85 108.15 72 96 72Z" fill="#4F46E5"/>
  <circle cx="96" cy="86" r="4" fill="white"/>
  <path d="M88 102H104V106H88V102Z" fill="white"/>
</svg>